<svg width="20" height="21" viewBox="0 0 20 21" fill="none" xmlns="http://www.w3.org/2000/svg">
<path d="M19.7572 7.18058L19.7572 7.18051C19.7536 7.16959 19.7486 7.16003 19.7432 7.14977C19.7414 7.14624 19.7395 7.14263 19.7376 7.13884C19.7327 7.12903 19.7278 7.11983 19.7229 7.11062C19.718 7.10141 19.7131 7.0922 19.7081 7.08237L19.7082 7.08241C19.7062 7.07912 19.7042 7.07566 19.7022 7.07212C19.6967 7.06242 19.6908 7.05215 19.6836 7.04318L19.6836 7.04315C19.664 7.0137 19.6419 6.98426 19.6198 6.9548C19.6075 6.94007 19.5928 6.9229 19.5781 6.90819L19.5781 6.90814C19.5683 6.89592 19.5561 6.88613 19.5438 6.87631L19.5437 6.87627C19.5335 6.86608 19.5222 6.85708 19.5113 6.84842C19.5064 6.84458 19.5017 6.8408 19.4971 6.83701L19.7572 7.18058ZM19.7572 7.18058C19.7621 7.19037 19.7658 7.20077 19.7692 7.2112C19.7725 7.2216 19.7756 7.23204 19.7793 7.24186L19.7572 7.18058ZM19.4432 6.7978L19.4431 6.79777L10.4688 0.823879C10.3304 0.731462 10.1678 0.682138 10.0014 0.682138C9.83498 0.682138 9.67232 0.731462 9.53394 0.823879L0.554704 6.80267L0.554646 6.80271L0.554644 6.80271C0.552242 6.80391 0.549829 6.80572 0.547363 6.80757L0.547339 6.80759C0.544902 6.80941 0.542413 6.81128 0.539912 6.81253L0.540001 6.81247C0.527729 6.82229 0.515437 6.83213 0.500686 6.84196L0.500701 6.84195C0.48948 6.84996 0.479333 6.85901 0.46952 6.86775C0.464317 6.87239 0.459207 6.87694 0.454082 6.88121L0.454073 6.88122C0.447963 6.88611 0.44246 6.89161 0.436932 6.89714L0.436922 6.89715C0.431404 6.90266 0.425861 6.90821 0.419699 6.91314L0.419745 6.9131C0.405007 6.92783 0.390308 6.94253 0.378063 6.95968L0.378025 6.95973L0.378022 6.95973C0.353505 6.9867 0.333884 7.01612 0.314248 7.04803C0.311485 7.05264 0.308375 7.05725 0.305188 7.06197C0.304116 7.06356 0.303036 7.06516 0.301957 7.06678C0.297664 7.07322 0.293382 7.07995 0.289715 7.08728L0.289701 7.08731C0.279891 7.10447 0.270079 7.1241 0.260259 7.14374L0.260251 7.14375L0.260232 7.14379C0.256568 7.1499 0.253511 7.15662 0.250442 7.16368C0.249898 7.16493 0.249353 7.16619 0.248805 7.16746C0.246265 7.17335 0.243644 7.17942 0.240608 7.18549L0.240109 7.18525L0.240631 7.18544C0.236954 7.19525 0.233276 7.20567 0.229596 7.21609L0.229586 7.21612C0.225903 7.22656 0.222218 7.237 0.218533 7.24683L0.218011 7.24663L0.21854 7.24681C0.217533 7.24983 0.216528 7.25274 0.215545 7.25559C0.21172 7.26667 0.20823 7.27679 0.206284 7.28846L0.206279 7.28849H0.206278C0.201372 7.31057 0.196465 7.3351 0.191557 7.35964L0.191549 7.35969L0.184189 7.39648C0.179281 7.43329 0.176828 7.47009 0.176828 7.5069V13.4857C0.176828 13.5225 0.17928 13.5593 0.184186 13.5961C0.184187 13.5961 0.184188 13.5961 0.184189 13.5961L0.191548 13.6329L0.191549 13.6329L0.206263 13.704C0.206267 13.7041 0.20627 13.7041 0.206274 13.7041C0.208729 13.7114 0.210572 13.7182 0.212411 13.7249C0.214252 13.7317 0.21609 13.7384 0.21854 13.7458C0.225902 13.7679 0.233265 13.7875 0.240631 13.8071L0.240639 13.8072C0.244279 13.8181 0.249269 13.8276 0.254628 13.8379C0.256472 13.8414 0.258359 13.8451 0.260251 13.8488C0.262753 13.8538 0.265093 13.8587 0.267394 13.8634C0.274141 13.8774 0.280549 13.8906 0.289689 13.9053L0.289695 13.9053C0.29167 13.9086 0.29364 13.912 0.295653 13.9156C0.301179 13.9253 0.30703 13.9355 0.314205 13.9445L0.314224 13.9445C0.318336 13.9503 0.322164 13.956 0.325987 13.9618C0.333615 13.9732 0.341222 13.9846 0.351024 13.996L0.351036 13.9961L0.380493 14.0329C0.392768 14.0476 0.407486 14.0648 0.4222 14.0795L0.422244 14.0795C0.432017 14.0918 0.444244 14.1015 0.456529 14.1114L0.456577 14.1114C0.466767 14.1216 0.478119 14.1306 0.489046 14.1393C0.49389 14.1431 0.49865 14.1469 0.503189 14.1507L0.502832 14.1511M19.4432 6.7978L0.503181 14.1507L0.502832 14.1511M19.4432 6.7978C19.4456 6.799 19.448 6.80081 19.4505 6.80266C19.4529 6.80448 19.4554 6.80635 19.4579 6.80761L19.4432 6.7978ZM0.502832 14.1511C0.515109 14.1609 0.527386 14.1707 0.542118 14.1806L0.240109 13.8073C0.243765 13.8183 0.248782 13.8279 0.254147 13.8382C0.255988 13.8417 0.25787 13.8453 0.259752 13.8491C0.262247 13.8541 0.264583 13.8589 0.266882 13.8637C0.273632 13.8776 0.280058 13.8909 0.289216 13.9056C0.291178 13.9088 0.29314 13.9123 0.295148 13.9158C0.30068 13.9255 0.306564 13.9358 0.313769 13.9448C0.317861 13.9506 0.32168 13.9563 0.325499 13.962C0.333138 13.9735 0.340778 13.9849 0.3506 13.9964L0.380064 14.0332C0.392341 14.048 0.407073 14.0652 0.421805 14.0799C0.431624 14.0922 0.443898 14.102 0.456172 14.1118C0.466395 14.122 0.47779 14.1311 0.488728 14.1397C0.493566 14.1436 0.498314 14.1473 0.502832 14.1511ZM19.6914 13.9448C19.6942 13.9403 19.6973 13.9357 19.7005 13.9309C19.7058 13.923 19.7114 13.9148 19.716 13.9056C19.7209 13.8957 19.7258 13.8865 19.7307 13.8773C19.7357 13.8681 19.7406 13.8589 19.7455 13.8491C19.7498 13.8419 19.7533 13.8338 19.7569 13.8254C19.7595 13.8195 19.7621 13.8134 19.7651 13.8073L19.7646 13.8071C19.7683 13.7973 19.7719 13.7869 19.7756 13.7765C19.7774 13.7716 19.7791 13.7667 19.7808 13.7619C19.7828 13.7564 19.7847 13.751 19.7867 13.7458C19.7916 13.7335 19.7965 13.7188 19.7989 13.7041L19.7989 13.704C19.804 13.689 19.8067 13.6727 19.8095 13.6561C19.8108 13.6485 19.8121 13.6407 19.8137 13.6329L19.821 13.5961C19.8259 13.5593 19.8284 13.5225 19.8284 13.4857V7.50204C19.8235 7.47748 19.8207 7.4529 19.818 7.42835C19.8167 7.41609 19.8153 7.40383 19.8137 7.39159C19.8137 7.39158 19.8137 7.39158 19.8137 7.39157L19.8063 7.35477C19.8048 7.3471 19.8035 7.33969 19.8022 7.33236C19.7994 7.31619 19.7966 7.3005 19.7916 7.28362C19.7906 7.28063 19.7896 7.27773 19.7886 7.27488L19.6914 13.9448ZM0.289216 7.08703C0.279399 7.10421 0.269582 7.12385 0.259765 7.14348L0.289216 7.08703ZM10.8448 3.10009V3.1002L10.8467 3.10146V7.03301H10.8462L10.8469 7.03348L14.5054 9.47901L14.5049 9.47976L14.506 9.47901L17.4598 7.50491L17.4595 7.50444L17.4592 7.50398L17.4587 7.50323L10.8478 3.10087V3.09953H10.8473V3.09897H10.8448V3.09953V3.10009ZM10.8467 3.10009V3.10012L10.8466 3.10009H10.8467ZM9.15495 3.09953H9.1545L2.54292 7.50398L2.54323 7.50444L2.54354 7.50491L2.54404 7.50565L5.49672 9.47901L5.49622 9.47976L5.49734 9.47901L9.15582 7.03348L9.15607 7.03385V7.03301V3.09953H9.15551H9.15495ZM1.86556 9.08078L1.86524 9.08124L1.865 9.08162V11.9044H1.86556H1.86611H1.86656L3.97747 10.4931L3.97716 10.4926L3.97685 10.4921L3.97635 10.4914L1.86587 9.08032L1.86556 9.08078ZM9.15551 17.8832L9.15582 17.8828L9.15607 17.8824V13.9498H9.15652L9.15582 13.9493L5.49734 11.5038L5.49784 11.503L5.49672 11.5038L2.54292 13.4779L2.54323 13.4783L2.54354 13.4788L2.54404 13.4795L9.1552 17.8837L9.15551 17.8832ZM9.99984 12.4868L9.99934 12.4876L10.0005 12.4868L12.9862 10.4906L12.9859 10.4902L12.9856 10.4897L12.9851 10.4889L10.0005 8.49594L10.001 8.49519L9.99984 8.49594L7.01413 10.4921L7.01444 10.4926L7.01475 10.4931L7.01525 10.4938L9.99984 12.4868ZM10.8454 17.8832H10.8458L17.4574 13.4788L17.4571 13.4783L17.4568 13.4779L17.4563 13.4771L14.5036 11.5038L14.5041 11.503L14.503 11.5038L10.8445 13.9493L10.8442 13.9489V13.9498V17.8832H10.8448H10.8454ZM18.1348 11.902L18.1351 11.9015L18.1353 11.9012V9.07833H18.1348H18.1342H18.1337L16.0228 10.4897L16.0231 10.4902L16.0235 10.4906L16.024 10.4914L18.1344 11.9025L18.1348 11.902Z" fill="#2188FF" stroke="#2188FF" stroke-width="0.00111607"/>
</svg>
