<svg width="9" height="13" viewBox="0 0 9 13" fill="none" xmlns="http://www.w3.org/2000/svg">
<path d="M2.40167 8.22576H0.593342C0.360008 8.22576 0.187439 8.12125 0.0756332 7.91222C-0.0361724 7.70319 -0.0240196 7.50145 0.112092 7.30701L4.47251 1.03618C4.56973 0.900064 4.69612 0.805273 4.85168 0.7518C5.00723 0.698328 5.16765 0.700759 5.33293 0.759092C5.4982 0.817425 5.61973 0.919509 5.69751 1.06534C5.77529 1.21118 5.80445 1.36673 5.78501 1.53201L5.31834 5.30909H7.57876C7.83154 5.30909 8.00897 5.4209 8.11105 5.64451C8.21313 5.86812 8.18154 6.07715 8.01626 6.27159L3.21834 12.0174C3.1114 12.1438 2.98015 12.2265 2.82459 12.2653C2.66904 12.3042 2.51834 12.2896 2.37251 12.2216C2.22668 12.1535 2.11244 12.049 2.0298 11.9081C1.94716 11.7671 1.91556 11.614 1.93501 11.4487L2.40167 8.22576Z" fill="#52C41A"/>
</svg>
