<svg width="16" height="16" viewBox="0 0 16 16" fill="none" xmlns="http://www.w3.org/2000/svg">
<mask id="mask0_2003_22" style="mask-type:alpha" maskUnits="userSpaceOnUse" x="0" y="0" width="16" height="16">
<rect width="16" height="16" fill="#D9D9D9"/>
</mask>
<g mask="url(#mask0_2003_22)">
<path d="M7.01878 12.3269L10.7162 7.84317H8.02605L8.5158 4.0017L5.19313 8.8124H7.51835L7.01878 12.3269ZM6.22352 9.93887H4.20087C3.95452 9.93887 3.77542 9.83103 3.66355 9.61537C3.55168 9.3997 3.56726 9.18688 3.71028 8.97692L8.83502 1.55775C8.90908 1.45519 9.01079 1.38148 9.14013 1.3366C9.26948 1.29173 9.39512 1.29579 9.51705 1.34878C9.63898 1.39893 9.73713 1.48274 9.81148 1.60023C9.88584 1.71773 9.91775 1.84032 9.90722 1.968L9.30508 6.7167H11.8059C12.0707 6.7167 12.2588 6.83529 12.3703 7.07247C12.4818 7.30963 12.4526 7.5295 12.2829 7.73207L6.6705 14.5072C6.57977 14.6082 6.4724 14.6753 6.3484 14.7086C6.2244 14.7419 6.10072 14.7262 5.97735 14.6617C5.85115 14.6 5.76027 14.5148 5.70472 14.406C5.64916 14.2973 5.62893 14.1755 5.64403 14.0406L6.22352 9.93887Z" fill="#77818C"/>
</g>
</svg>
