<svg width="126" height="17" viewBox="0 0 126 17" fill="none" xmlns="http://www.w3.org/2000/svg">
<path d="M44.5897 0.369608L51.9058 16.7617H47.0375L45.7337 13.5675L44.3769 10.136L42.2487 4.88271L40.1204 10.136L38.7637 13.5675L37.4598 16.7617H32.671L39.9871 0.369608H44.5897ZM30.2771 9.55533C30.8358 8.65757 31.128 7.6285 31.128 6.4409C31.128 5.25329 30.8084 4.14447 30.2231 3.22045C29.6114 2.29643 28.7595 1.61071 27.6694 1.10882C26.5519 0.606934 25.248 0.369608 23.7854 0.369608H16.2301V4.01219H23.4933C24.4246 4.01219 25.1696 4.22325 25.6745 4.64538C26.1538 5.06751 26.4195 5.67445 26.4195 6.41366C26.4195 7.15288 26.1538 7.75981 25.6745 8.18194C25.1686 8.60407 24.451 8.78888 23.4933 8.78888H16.2301V16.7345H20.9121V12.3789H23.4658L26.4725 16.7345H31.474L27.8831 11.6144C28.8938 11.1125 29.6918 10.4531 30.2771 9.55533ZM126 0.369608H121.424L121.397 5.06849L125.974 10.5591L126 0.369608ZM58.1033 4.40806C58.8219 4.03845 59.6199 3.82738 60.5247 3.82738C62.0413 3.82738 63.3451 4.48684 64.4087 5.75421L67.3889 3.08817C66.5909 2.11163 65.5802 1.31989 64.3558 0.791738C63.1323 0.263589 61.7756 0 60.259 0C58.5033 0 56.9603 0.369607 55.577 1.10882C54.2203 1.84804 53.1292 2.85084 52.3312 4.11821C51.5332 5.43809 51.1607 6.89026 51.1607 8.52626C51.1607 10.1623 51.5332 11.6407 52.3312 12.9343C53.1292 14.2017 54.2203 15.2045 55.577 15.9174C56.9338 16.6567 58.5033 17 60.259 17C61.7756 17 63.1059 16.7364 64.3558 16.2083C65.5527 15.6801 66.5644 14.9146 67.3889 13.9118L64.4087 11.2458C63.3176 12.5394 62.0138 13.1726 60.5247 13.1726C59.6199 13.1726 58.8219 12.9878 58.1033 12.5919C57.3848 12.2223 56.8524 11.6679 56.4809 10.955C56.1094 10.242 55.9221 9.42402 55.9221 8.5C55.9221 7.57598 56.1084 6.75798 56.4809 6.07129C56.8534 5.35834 57.4122 4.80393 58.1033 4.40806ZM0 4.03845H5.08196V16.7617H9.76395V4.03845H14.8185V0.369608H0V4.03845ZM110.303 16.7617H114.879L114.906 11.8518L110.33 6.07129L110.303 16.7617ZM97.3464 0.369608L90.0567 16.7617H94.8191L96.1229 13.5675L97.4797 10.136L99.6079 4.88271L101.736 10.136L103.093 13.5675L104.397 16.7617H109.265L101.949 0.369608H97.3464ZM121.424 9.10693L114.134 0.369608H110.277V2.56002L114.853 8.05063L122.142 16.788H126V14.8874L121.424 9.10693ZM84.3366 16.7617H89.0186V0.369608H84.3366V16.7617ZM68.1339 4.03845H73.1894V16.7617H77.8714V4.03845H82.9259V0.369608H68.1339V4.03845Z" fill="#F9FAFB"/>
</svg>
