<svg width="20" height="22" viewBox="0 0 20 22" fill="none" xmlns="http://www.w3.org/2000/svg">
<path d="M10.3018 0.61175C10.2847 0.611908 10.2676 0.612485 10.2505 0.613482C10.1779 0.618629 10.1064 0.63313 10.0379 0.656596C9.98601 0.674509 9.93612 0.697424 9.88901 0.72499L1.23388 5.52417C1.11208 5.59173 1.01094 5.6889 0.940629 5.8059C0.870315 5.9229 0.833303 6.05561 0.833313 6.19071C0.833313 6.1959 0.833674 6.20179 0.833854 6.20733C0.833674 6.21339 0.833854 6.21945 0.833854 6.22568V15.8101C0.833826 15.9494 0.873129 16.086 0.947575 16.2055C1.02202 16.325 1.12882 16.4228 1.2566 16.4886L9.90821 21.2862C9.92444 21.295 9.94066 21.3033 9.95689 21.3111V21.3128C9.98126 21.3241 10.0062 21.3341 10.0317 21.3429C10.0317 21.3438 10.0407 21.3455 10.0425 21.3464C10.0678 21.355 10.093 21.3617 10.1191 21.3676C10.1281 21.3685 10.129 21.3702 10.1336 21.3711C10.1588 21.3763 10.1849 21.3808 10.2111 21.3837C10.2111 21.3841 10.2201 21.3845 10.2237 21.3846C10.2507 21.3872 10.2787 21.3889 10.3057 21.3889C10.3328 21.3889 10.3607 21.3872 10.3877 21.3846C10.3877 21.3841 10.3968 21.3838 10.4004 21.3837C10.4265 21.3811 10.4523 21.3769 10.4779 21.3711C10.4869 21.3702 10.4878 21.3693 10.4923 21.3676C10.5182 21.3617 10.5437 21.3546 10.5689 21.3464C10.5689 21.3455 10.5779 21.3438 10.5797 21.3429C10.6052 21.3341 10.6302 21.3241 10.6545 21.3129V21.3111C10.671 21.3033 10.6872 21.295 10.7032 21.2863L19.3551 16.4887C19.4829 16.4229 19.5896 16.325 19.6641 16.2055C19.7385 16.0861 19.7778 15.9494 19.7778 15.8102V6.21988C19.7778 6.21209 19.7772 6.20499 19.777 6.19755H19.7773V6.19062C19.7773 6.07943 19.7521 5.96957 19.7036 5.86862C19.6551 5.76766 19.5844 5.678 19.4964 5.60581C19.4873 5.59888 19.4792 5.59178 19.4702 5.58495C19.4702 5.58321 19.4612 5.58062 19.4612 5.57889C19.4305 5.55635 19.3981 5.53595 19.3644 5.51785L10.7141 0.720748C10.5877 0.64783 10.4428 0.609899 10.2954 0.611144L10.3018 0.61175ZM10.3109 2.56167C10.3758 2.56167 10.4409 2.57786 10.4992 2.61015L16.3911 5.87748C16.6425 6.01687 16.6425 6.36516 16.3911 6.50454L10.4992 9.77187C10.4418 9.80365 10.3768 9.82038 10.3107 9.82038C10.2445 9.82038 10.1795 9.80365 10.1222 9.77187L4.2303 6.50454C3.979 6.36524 3.97891 6.01687 4.2303 5.87748L10.1224 2.61015C10.1797 2.57844 10.2446 2.56172 10.3108 2.56167H10.3109ZM3.0277 8.15266C3.09573 8.15172 3.16274 8.16863 3.22149 8.20158L9.10203 11.4625C9.15919 11.4942 9.20667 11.5398 9.23967 11.5947C9.27268 11.6495 9.29005 11.7118 9.29005 11.7752V18.2965C9.29005 18.5746 8.97665 18.7485 8.7258 18.6093L2.84553 15.3484C2.78836 15.3167 2.74089 15.2711 2.70789 15.2162C2.67488 15.1613 2.65751 15.099 2.6575 15.0356V8.51429C2.6575 8.30581 2.83372 8.15587 3.0277 8.15266ZM17.5937 8.15266C17.7875 8.15613 17.9639 8.30573 17.9639 8.51429V15.0355C17.9639 15.1645 17.8918 15.2838 17.7758 15.3484L11.8954 18.6093C11.6448 18.7484 11.3313 18.5746 11.3313 18.2964V11.7752C11.3313 11.6462 11.4034 11.527 11.5193 11.4624L17.3997 8.20149C17.4585 8.16853 17.5256 8.15162 17.5936 8.15258L17.5937 8.15266Z" fill="#2188FF"/>
</svg>
