<svg width="22" height="18" viewBox="0 0 22 18" fill="none" xmlns="http://www.w3.org/2000/svg">
<path d="M6.44641 7.92857H15.6071C15.6178 7.92857 15.6312 7.92857 15.6419 7.92589C15.7598 7.90714 15.8375 7.79732 15.8187 7.67946L14.7419 1.0366C14.7259 0.93214 14.6348 0.85714 14.5303 0.85714H7.5232C7.41873 0.85714 7.32766 0.93214 7.31159 1.0366L6.2348 7.67946C6.23213 7.69018 6.23213 7.70357 6.23213 7.71428C6.23213 7.83214 6.32855 7.92857 6.44641 7.92857ZM8.88927 2.67857H13.1616L13.7161 6.10714H8.33212L8.88927 2.67857ZM8.95623 10.2509C8.94016 10.1464 8.84909 10.0714 8.74462 10.0714H1.73748C1.63302 10.0714 1.54195 10.1464 1.52588 10.2509L0.44909 16.8937C0.446411 16.9045 0.446411 16.9179 0.446411 16.9286C0.446411 17.0464 0.54284 17.1429 0.660697 17.1429H9.82141C9.83212 17.1429 9.84552 17.1429 9.85623 17.1402C9.97409 17.1214 10.0518 17.0116 10.033 16.8937L8.95623 10.2509ZM2.54909 15.3214L3.10355 11.8929H7.37588L7.93034 15.3214H2.54909ZM21.5509 16.8937L20.4741 10.2509C20.458 10.1464 20.3669 10.0714 20.2625 10.0714H13.2553C13.1509 10.0714 13.0598 10.1464 13.0437 10.2509L11.9669 16.8937C11.9643 16.9045 11.9643 16.9179 11.9643 16.9286C11.9643 17.0464 12.0607 17.1429 12.1786 17.1429H21.3393C21.35 17.1429 21.3634 17.1429 21.3741 17.1402C21.4893 17.1214 21.5696 17.0116 21.5509 16.8937ZM14.0669 15.3214L14.6214 11.8929H18.8937L19.4482 15.3214H14.0669Z" fill="white"/>
</svg>
